<?xml version="1.0" encoding="iso-8859-1"?>
<!-- Generator: Adobe Illustrator 18.1.1, SVG Export Plug-In . SVG Version: 6.00 Build 0)  -->
<svg version="1.1" id="Capa_1" xmlns="http://www.w3.org/2000/svg" xmlns:xlink="http://www.w3.org/1999/xlink" x="0px" y="0px"
	 viewBox="0 0 16.043 16.043" style="enable-background:new 0 0 16.043 16.043;" xml:space="preserve">
<g>
	<path style="fill:#030104;" d="M9.72,15.508V8.072l5.139-5.138H9.982l0.894-2.33h2.798L13.822,0H10.33L9.202,2.934
		c0,0-5.305-0.02-5.886,0c-0.047,0.002-0.085,0.01-0.119,0.021l0.022-0.092l1.667-0.508C4.521,1.37,3.408,0.827,2.424,1.192
		C1.438,1.559,0.936,2.66,1.305,3.645C1.54,4.424,2.448,4.764,2.448,4.764C2.857,4.912,3.316,4.93,3.755,4.766L3.594,4.335
		C3.346,4.427,3.09,4.441,2.846,4.399l0.237-0.975C3.142,3.59,3.234,3.733,3.234,3.733l4.339,4.338v7.436
		c-1.167,0.176-1.416-0.102-1.444-0.085l-0.088,0.06v0.561h5.212v-0.561l-0.089-0.06C11.135,15.407,10.886,15.684,9.72,15.508z
		 M1.722,3.441C1.613,3.119,1.627,2.783,1.738,2.483l0.734,0.424L1.722,3.441z M2.439,4.267c-0.203-0.103-0.38-0.254-0.518-0.443
		l0.758-0.541L2.439,4.267z M1.94,2.107c0.161-0.211,0.377-0.383,0.644-0.482c0.034-0.013,0.07-0.018,0.105-0.028l0.09,0.994
		L1.94,2.107z M4.2,2.063L3.191,2.421l-0.08-0.884C3.533,1.544,3.93,1.737,4.2,2.063z M9.748,3.538h3.955l-1.785,1.784
		c-0.304-0.187-1.188-0.617-2.371-0.217C9.392,5.156,9.232,5.224,9.068,5.308L9.748,3.538z M7.837,6.699L7.586,6.448l0.251-0.251
		l0.251,0.251L7.837,6.699z M5.586,5.535L3.591,3.538h5.354L8.164,5.57C6.93,6.101,6.139,5.762,5.586,5.535z M9.091,7.201L8.84,6.95
		l0.251-0.251L9.343,6.95L9.091,7.201z M9.4,5.916h0.355v0.355H9.4V5.916z"/>
</g>
<g>
</g>
<g>
</g>
<g>
</g>
<g>
</g>
<g>
</g>
<g>
</g>
<g>
</g>
<g>
</g>
<g>
</g>
<g>
</g>
<g>
</g>
<g>
</g>
<g>
</g>
<g>
</g>
<g>
</g>
</svg>
