<svg height="512pt" viewBox="-26 0 512 512.00094" width="512pt" xmlns="http://www.w3.org/2000/svg"><path d="m226.386719 235.769531s-15.222657-135.253906 31.796875-212.863281c7.390625-12.203125 22.039062-17.964844 35.84375-14.367188 9.277344 2.417969 20.289062 5.238282 30.109375 7.738282 13.292969 3.382812 20.464843 17.820312 15.078125 30.4375-12.910156 30.253906-32.28125 85.523437-31.375 143.15625-7.199219-4.523438-81.453125 45.898437-81.453125 45.898437zm0 0" fill="#dfca00"/><path d="m243.683594 235.769531s15.222656-135.253906-31.796875-212.863281c-7.390625-12.203125-22.039063-17.964844-35.84375-14.367188-9.277344 2.417969-20.289063 5.238282-30.109375 7.738282-13.292969 3.382812-20.464844 17.820312-15.078125 30.4375 12.910156 30.253906 32.28125 85.523437 31.375 143.15625 7.199219-4.523438 81.453125 45.898437 81.453125 45.898437zm0 0" fill="#eedb00"/><path d="m375.171875 351.117188s29.03125-104.730469 75.050781-176.234376c7.867188-12.222656 2.054688-28.578124-11.785156-33.019531-10.351562-3.324219-21.851562-6.953125-31.421875-9.957031-12.425781-3.898438-25.875 1.34375-32.40625 12.613281-20.882813 36.039063-64.28125 118.292969-81.171875 205.671875 2.347656-1.925781 81.734375.925782 81.734375.925782zm0 0" fill="#dfca00"/><path d="m356.335938 294.257812s6.050781-108.507812 35.78125-188.175781c5.085937-13.617187-4.078126-28.355469-18.550782-29.75-10.820312-1.042969-22.828125-2.136719-32.816406-3.03125-12.972656-1.164062-24.996094 6.824219-28.976562 19.226563-12.726563 39.660156-37.605469 129.269531-35.496094 218.238281 1.882812-2.378906 80.058594-16.507813 80.058594-16.507813zm0 0" fill="#eedb00"/><path d="m290.554688 323.753906s0-101.632812 25.847656-192.449218c3.792968-13.328126-5.234375-26.875-19.007813-28.386719l-26.824219-2.941407c-13.480468-1.480468-25.890624 7.464844-28.773437 20.71875-8.828125 40.5625-24.839844 127.140626-19.996094 203.058594 0-1.242187 68.753907 0 68.753907 0zm0 0" fill="#f4e74d"/><path d="m86.101562 351.117188s-29.027343-104.730469-75.050781-176.234376c-7.863281-12.222656-2.050781-28.578124 11.789063-33.019531 10.351562-3.324219 21.847656-6.953125 31.417968-9.957031 12.429688-3.898438 25.878907 1.34375 32.40625 12.613281 20.886719 36.039063 64.285157 118.292969 81.175782 205.671875-2.347656-1.925781-81.738282.925782-81.738282.925782zm0 0" fill="#eedb00"/><path d="m106.675781 294.257812s-6.054687-108.507812-35.785156-188.175781c-5.085937-13.617187 4.078125-28.355469 18.550781-29.75 10.820313-1.042969 22.828125-2.136719 32.816406-3.03125 12.972657-1.164062 24.996094 6.824219 28.976563 19.226563 12.726563 39.660156 37.605469 129.269531 35.496094 218.238281-1.882813-2.378906-80.054688-16.507813-80.054688-16.507813zm0 0" fill="#f4e74d"/><path d="m170.71875 323.753906s0-101.632812-25.84375-192.449218c-3.792969-13.328126 5.230469-26.875 19.003906-28.386719l26.824219-2.941407c13.484375-1.480468 25.890625 7.464844 28.777344 20.71875 8.828125 40.5625 24.839843 127.140626 19.992187 203.058594 0-1.242187-68.753906 0-68.753906 0zm0 0" fill="#f9ee80"/><path d="m381.558594 205.625c-21.265625.078125-40.222656 13.597656-47.027344 33.75-14.007812 41.507812-53.261719 71.390625-99.496094 71.390625s-85.488281-29.882813-99.496094-71.390625c-6.800781-20.152344-25.761718-33.671875-47.027343-33.75l-30.496094-.117188c-21.980469 0-38.066406 20.722657-32.617187 42.019532l57.34375 224.050781c6.140624 24.003906 30.984374 38.144531 54.734374 31.085937 26.96875-8.011718 63.0625-16.242187 97.558594-16.242187s70.589844 8.230469 97.558594 16.242187c23.75 7.058594 48.59375-7.085937 54.734375-31.085937l57.34375-224.050781c5.449219-21.296875-10.636719-42.019532-32.617187-42.019532zm0 0" fill="#fb695b"/><path d="m211.960938 344.429688c78.976562-6.683594 96.214843-63.332032 96.214843-63.332032-18.910156 18.375-44.691406 29.667969-73.140625 29.667969-46.234375 0-85.488281-29.882813-99.496094-71.390625-6.800781-20.152344-25.761718-33.671875-47.027343-33.753906l-30.496094-.113282c-21.980469 0-38.066406 20.71875-32.617187 42.015626l57.339843 224.050781c6.144531 24.003906 30.988281 38.144531 54.738281 31.085937 13.105469-3.890625 28.371094-7.839844 44.558594-10.863281-9.363281-23.554687-16.808594-51.570313-22.398437-77.109375-7.53125-34.425781 17.207031-67.285156 52.324219-70.257812zm0 0" fill="#f54432"/><path d="m171.011719 400.449219c0-13.179688-13.417969-23.867188-29.972657-23.867188-16.554687 0-29.972656 10.6875-29.972656 23.867188 0 13.183593 13.417969 23.871093 29.972656 23.871093 16.554688 0 29.972657-10.6875 29.972657-23.871093zm0 0" fill="#ffd2e3"/><path d="m359.003906 400.449219c0-13.179688-13.421875-23.867188-29.972656-23.867188-16.554688 0-29.972656 10.6875-29.972656 23.867188 0 13.183593 13.417968 23.871093 29.972656 23.871093 16.550781 0 29.972656-10.6875 29.972656-23.871093zm0 0" fill="#ffd2e3"/><path d="m255.894531 394.402344c0-13.640625-9.339843-24.695313-20.859375-24.695313-11.519531 0-20.859375 11.054688-20.859375 24.695313s9.339844 24.699218 20.859375 24.699218c11.519532 0 20.859375-11.058593 20.859375-24.699218zm0 0" fill="#454545"/><path d="m308.191406 367.398438v12.449218c0 4.140625 3.355469 7.5 7.5 7.5 4.144532 0 7.5-3.359375 7.5-7.5v-12.449218c0-4.144532-3.355468-7.5-7.5-7.5-4.140625 0-7.5 3.355468-7.5 7.5zm0 0"/><path d="m146.878906 367.398438v12.449218c0 4.140625 3.355469 7.5 7.5 7.5 4.140625 0 7.5-3.359375 7.5-7.5v-12.449218c0-4.144532-3.359375-7.5-7.5-7.5-4.144531 0-7.5 3.355468-7.5 7.5zm0 0"/><path d="m206.675781 394.402344c0 17.753906 12.722657 32.199218 28.359375 32.199218 15.636719 0 28.359375-14.445312 28.359375-32.199218s-12.722656-32.195313-28.359375-32.195313c-15.636718 0-28.359375 14.441407-28.359375 32.195313zm41.71875 0c0 9.484375-5.992187 17.199218-13.359375 17.199218-7.367187 0-13.359375-7.714843-13.359375-17.199218 0-9.480469 5.992188-17.195313 13.359375-17.195313 7.367188 0 13.359375 7.714844 13.359375 17.195313zm0 0"/><path d="m459.515625 152.886719c-3.121094-8.714844-9.972656-15.335938-18.789063-18.167969-8.800781-2.824219-19.390624-6.179688-31.464843-9.96875-4.976563-1.558594-10.1875-1.953125-15.253907-1.273438 1.664063-5.121093 3.375-10.054687 5.136719-14.769531 3.25-8.710937 2.292969-18.21875-2.628906-26.09375-4.910156-7.847656-13.011719-12.859375-22.230469-13.746093-9.210937-.886719-34.039062-3.125-34.625-3.148438 2.058594-5.421875 4.207032-10.796875 6.453125-16.058594 3.421875-8.019531 3.167969-17.101562-.699219-24.921875-3.871093-7.839843-10.953124-13.570312-19.429687-15.726562-11.925781-3.035157-22.039063-5.636719-30.066406-7.726563-16.988281-4.425781-35.144531 2.867188-44.152344 17.734375-6.421875 10.601563-12.015625 22.730469-16.734375 36.242188-4.710938-13.488281-10.285156-25.605469-16.730469-36.242188-9.007812-14.871093-27.167969-22.164062-44.152343-17.734375-7.988282 2.082032-18.101563 4.679688-30.0625 7.726563-8.476563 2.15625-15.558594 7.890625-19.429688 15.726562-3.867188 7.820313-4.121094 16.902344-.699219 24.921875 2.3125 5.417969 4.527344 10.933594 6.632813 16.496094-2.914063-.476562-32.660156 1.824219-41.867188 2.710938-9.21875.886718-17.320312 5.898437-22.230468 13.746093-4.921876 7.875-5.878907 17.382813-2.628907 26.09375 1.792969 4.800781 3.53125 9.816407 5.21875 15.015625-5.585937-1.042968-11.429687-.738281-17.070312 1.027344-12.074219 3.789062-22.660157 7.144531-31.464844 9.96875-8.816406 2.832031-15.664063 9.453125-18.789063 18.167969-3.132812 8.742187-2.042968 18.238281 2.988282 26.054687 6.789062 10.550782 13.609375 22.507813 20.316406 35.585938-7.511719 10.027344-10.042969 22.683594-6.929688 34.855468l57.339844 224.054688c3.488282 13.625 12.144532 24.945312 24.375 31.878906 12.207032 6.917969 26.328125 8.527344 39.765625 4.539063 24.464844-7.269531 60.875-15.933594 95.421875-15.933594 59.523438 0 88.15625 18.078125 110.0625 18.078125 32.105469 0 46.011719-24.9375 49.496094-38.5625 1.027344-4.011719-1.390625-8.097656-5.40625-9.125s-8.097656 1.394531-9.125 5.40625c-2.464844 9.636719-8.585938 17.644531-17.238281 22.546875-8.625 4.890625-18.601563 6.03125-28.097657 3.207031-25.414062-7.550781-63.339843-16.550781-99.691406-16.550781-36.351562 0-74.277344 9-99.691406 16.550781-9.492188 2.820313-19.472656 1.683594-28.097656-3.207031-8.652344-4.902344-14.773438-12.914063-17.242188-22.546875l-57.339844-224.054688c-2.019531-7.886718-.3125-16.101562 4.683594-22.535156 4.992188-6.429687 12.527344-10.121094 20.640625-10.121094l30.496094.113282c18.132813.070312 34.1875 11.582031 39.949219 28.652344 15.441406 45.75 58.28125 76.492187 106.601562 76.492187 48.320313 0 91.160156-30.742187 106.605469-76.492187 5.757813-17.070313 21.8125-28.582032 39.949219-28.652344l30.464844-.113282c8.144531 0 15.675781 3.691407 20.671874 10.121094 4.992188 6.433594 6.699219 14.648438 4.679688 22.535156l-49.761719 194.441407c-1.027343 4.015625 1.390625 8.097656 5.40625 9.125 4.011719 1.027343 8.097657-1.390625 9.125-5.40625l49.761719-194.4375c5.625-27.613281-10.667969-39.316407-12.53125-40.980469 5.664062-10.691406 11.410156-20.585938 17.125-29.464844 5.027344-7.816406 6.117188-17.3125 2.984375-26.054687zm-194.917969-126.09375c5.59375-9.238281 16.921875-13.761719 27.539063-10.996094 8.050781 2.101563 18.195312 4.707031 30.144531 7.75 4.226562 1.074219 7.757812 3.929687 9.6875 7.835937 1.921875 3.890626 2.050781 8.402344.347656 12.390626-3.570312 8.367187-20.175781 30.691406-29.605468 52.542968-1.464844-.394531-31.320313-3.796875-31.320313-3.796875-9.265625-1.023437-18.109375 1.769531-24.90625 7.1875-1.113281-6.148437-2.355469-12.113281-3.730469-17.875 5.410156-21.519531 12.753906-40.035156 21.84375-55.039062zm-26.367187 153.832031c3.816406-24.363281 8.019531-45.132812 10.894531-58.335938 2.074219-9.535156 10.9375-15.921874 20.628906-14.859374l26.820313 2.945312c4.339843.476562 8.21875 2.820312 10.652343 6.4375 2.457032 3.652344 3.171876 8.1875 1.960938 12.4375-17.140625 60.230469-22.984375 125.53125-24.964844 160.707031-11.035156 6.445313-23.382812 10.746094-36.421875 12.460938.65625-41.984375-3.949219-85.371094-9.570312-121.792969zm-100.128907-149.238281c1.929688-3.90625 5.460938-6.765625 9.683594-7.839844 11.988282-3.050781 22.132813-5.65625 30.148438-7.746094 10.613281-2.769531 21.941406 1.753907 27.539062 10.992188 14.074219 23.226562 23.792969 54.382812 28.929688 92.597656-1.097656 5.054687-2.382813 11.179687-3.761719 18.160156-1.34375-6.773437-2.640625-12.976562-3.832031-18.453125-3.714844-17.054687-19.574219-28.484375-36.921875-26.578125 0 0-28.761719 3.210938-29.710938 3.410157-.597656-1.921876-17.882812-41.519532-22.421875-52.15625-1.703125-3.984376-1.574218-8.5.347656-12.386719zm-101.574218 172.660156c-6.324219-12.101563-12.753906-23.257813-19.167969-33.222656-2.488281-3.867188-3.027344-8.558594-1.480469-12.875 1.539063-4.292969 4.910156-7.554688 9.253906-8.949219 8.773438-2.8125 19.328126-6.160156 31.371094-9.9375 6.21875-1.953125 12.875-.824219 18.078125 2.992188 4.722657 17.003906 8.941407 35.742187 12.621094 56.0625l-29.1875-.109376c-7.738281 0-15.121094 2.132813-21.488281 6.039063zm106.117187 32.929687c-6.257812-18.542968-21.460937-32.238281-39.878906-37.007812-6.5625-37.429688-14.917969-69.890625-24.851563-96.507812-1.605468-4.308594-1.132812-9.007813 1.296876-12.894532 2.417968-3.863281 6.40625-6.332031 10.945312-6.769531 9.179688-.886719 20.203125-1.902344 32.769531-3.027344 9.527344-.859375 19.363281 2.3125 23.664063 21.988281-10.78125 7.234376-11.351563 22.089844-8.929688 30.597657 3.109375 10.925781 6 22.601562 8.589844 34.695312.867188 4.050781 4.851562 6.632813 8.902344 5.761719 4.050781-.867188 6.632812-4.851562 5.765625-8.902344-2.660157-12.417968-5.632813-24.414062-8.832031-35.660156-1.207032-4.25-.496094-8.785156 1.960937-12.433594 2.433594-3.617187 6.316406-5.964844 10.652344-6.441406l26.824219-2.945312c9.675781-1.054688 18.554687 5.324218 20.628906 14.859374 8.347656 38.367188 21.867187 111.886719 20.636718 180.933594-20.738281-.472656-40.210937-7.46875-56.097656-19.324218-1.332031-21.144532-4.085937-52.78125-9.71875-86.902344-.671875-4.085938-4.523437-6.855469-8.621094-6.175782-4.085937.671876-6.851562 4.53125-6.175781 8.621094 4.238281 25.695313 6.820313 49.976563 8.382813 69.277344-7.757813-9.175781-13.90625-19.871094-17.914063-31.742188zm301.269531-66.152343c-5.804687 9.023437-11.628906 19.03125-17.363281 29.808593-4.570312-1.710937-9.46875-2.625-14.527343-2.625l-30.492188.117188c-24.546875.089844-46.292969 15.703125-54.105469 38.851562-5.535156 16.394532-15.132812 30.554688-27.445312 41.539063 2.542969-36.136719 8.710937-92.71875 23.636719-145.15625 2.421874-8.507813.777343-21.359375-7.585938-29.332031 6.011719-19.910156 14.511719-24.117188 24.050781-23.257813 12.566407 1.125 23.589844 2.144531 32.769531 3.027344 4.539063.4375 8.527344 2.90625 10.945313 6.773437 2.429687 3.886719 2.902344 8.585938 1.296875 12.890626-7.527344 20.167968-14.203125 43.894531-19.84375 70.527343-.859375 4.050781 1.703125 8.164063 5.78125 8.890625 4.96875.882813 8.144531-2.253906 8.890625-5.785156 2.726563-12.871094 5.695313-25.027344 8.886719-36.390625 4.835937-2.679687 10.644531-3.304687 15.960937-1.636719 12.046875 3.777344 22.601563 7.121094 31.371094 9.9375 4.34375 1.394532 7.71875 4.65625 9.253906 8.949219 1.546875 4.3125 1.007813 9.003906-1.480469 12.871094zm0 0"/></svg>