<svg id="Capa_1" enable-background="new 0 0 512 512" height="512" viewBox="0 0 512 512" width="512" xmlns="http://www.w3.org/2000/svg"><path d="m406 225.167c-16.807 0-32.709 3.938-46.842 10.93l-20.905-35.792v-50.47h45c8.271 0 15 6.729 15 15s-6.729 15-15 15h-22.5c-4.142 0-7.5 3.358-7.5 7.5s3.358 7.5 7.5 7.5h22.5c16.542 0 30-13.458 30-30s-13.458-30-30-30h-52.5c-4.142 0-7.5 3.358-7.5 7.5v52.5h-103.453l-32.873-56.283c-1.344-2.302-3.81-3.717-6.476-3.717h-49.742c-4.142 0-7.5 3.358-7.5 7.5s3.358 7.5 7.5 7.5h10.695l30.671 52.513-19.491 33.591c-14.433-7.061-30.388-10.771-46.584-10.771-58.449 0-106 47.551-106 106s47.551 106 106 106c55.927 0 101.87-43.538 105.731-98.5h44.253c1.04.001 2.065-.215 3.04-.646.252-.111.501-.23.739-.368.272-.157.509-.32.737-.49.056-.042.109-.089.164-.132.185-.147.362-.3.53-.461.056-.053.111-.108.165-.163.182-.186.354-.38.514-.582.025-.031.052-.06.076-.092.188-.245.359-.5.513-.763.025-.037 68.312-117.726 68.312-117.726l15.443 26.44c-27.885 19.112-46.217 51.194-46.217 87.482 0 58.449 47.551 106 106 106s106-47.551 106-106-47.551-106-106-106zm-229.854-75.334 26.284 45h-17.371l-26.283-45zm66.788 173.834h-31.199c-1.664-23.612-11.152-45.969-27.14-63.626-2.78-3.069-7.522-3.306-10.594-.525-3.07 2.78-3.306 7.523-.525 10.594 13.483 14.891 21.566 33.68 23.2 53.558h-77.653l61.751-106.425zm-136.934 98.5c-50.178 0-91-40.822-91-91s40.822-91 91-91c13.551 0 26.9 3.028 39.031 8.788l-45.519 78.448c-1.346 2.32-1.351 5.183-.012 7.507 1.338 2.324 3.816 3.757 6.499 3.757h90.689c-3.826 46.682-43.036 83.5-90.688 83.5zm149.979-105.908-62.16-106.425h21.668 102.243zm150.021 105.908c-50.178 0-91-40.822-91-91 0-30.771 15.355-58.021 38.802-74.498l45.721 78.281c1.395 2.388 3.904 3.718 6.483 3.718 1.285 0 2.586-.33 3.776-1.025 3.577-2.089 4.783-6.682 2.693-10.259l-45.735-78.304c11.893-5.71 25.208-8.913 39.259-8.913 50.178 0 91 40.822 91 91s-40.821 91-90.999 91z"/><path d="m104.759 119.833h88.35c4.142 0 7.5-3.358 7.5-7.5v-15c0-12.407-10.093-22.5-22.5-22.5h-73.35c-12.407 0-22.5 10.093-22.5 22.5s10.094 22.5 22.5 22.5zm0-30h73.35c4.136 0 7.5 3.364 7.5 7.5v7.5h-80.85c-4.136 0-7.5-3.364-7.5-7.5s3.365-7.5 7.5-7.5z"/></svg>